<svg xmlns="http://www.w3.org/2000/svg" viewBox="0 0 500 500"><g id="freepik--background-complete--inject-36"><path d="M60.29,120.18l-14.61,70.5c6.5,6.6,13.39,12.83,24.51,15.18l53.5,9.4,12.57-82.87Z" style="fill:#fafafa"></path><polygon points="57.24 115.83 42.63 186.33 67.14 201.51 120.64 210.91 136.44 131.36 57.24 115.83" style="fill:#f5f5f5"></polygon><path d="M52.6,182.57l-10,3.76s3.6,5.87,8.85,9a44.77,44.77,0,0,0,15.66,6.13S55.46,195.7,52.6,182.57Z" style="fill:#e0e0e0"></path><polygon points="49.1 130.96 85.67 119.62 83.34 111.92 46.17 122.73 49.1 130.96" style="fill:#ebebeb"></polygon><polygon points="142.77 150.38 119.06 120.31 112.72 125.25 136.13 156.07 142.77 150.38" style="fill:#ebebeb"></polygon><path d="M122.68,154.78c0,.14-13.53-2.38-30.16-5.63s-30.09-6-30.06-6.15,13.53,2.38,30.16,5.63S122.71,154.64,122.68,154.78Z" style="fill:#e0e0e0"></path><path d="M120.29,165.59c0,.14-13.53-2.38-30.16-5.64S60,154,60.07,153.81s13.53,2.38,30.16,5.63S120.32,165.45,120.29,165.59Z" style="fill:#e0e0e0"></path><path d="M118.74,175.28c0,.14-13.53-2.38-30.15-5.63s-30.09-6-30.07-6.15,13.53,2.38,30.17,5.64S118.77,175.14,118.74,175.28Z" style="fill:#e0e0e0"></path><path d="M116.87,184.54c0,.14-13.53-2.38-30.16-5.64s-30.09-6-30.06-6.14,13.53,2.38,30.16,5.63S116.89,184.4,116.87,184.54Z" style="fill:#e0e0e0"></path><path d="M402.63,87.76l-18.91,46.09c-6.27,1.27-12.64,2.18-19.93-.77l-34.33-15.31,24.87-52.41Z" style="fill:#fafafa"></path><polygon points="406.06 86.44 387.16 132.54 367.22 131.76 332.89 116.45 354.62 64.7 406.06 86.44" style="fill:#f5f5f5"></polygon><path d="M382.89,126.52l4.27,6a21.55,21.55,0,0,1-8.58,1.77,31.12,31.12,0,0,1-11.36-2.55S376.17,133,382.89,126.52Z" style="fill:#e0e0e0"></path><polygon points="404.87 98.27 388.28 77.62 392.6 74.1 409.74 94.68 404.87 98.27" style="fill:#ebebeb"></polygon><polygon points="343.63 73.17 368.86 65.09 370.59 70.38 345.23 79 343.63 73.17" style="fill:#ebebeb"></polygon><path d="M353.45,83.46c.05-.13,8.85,3.47,19.65,8s19.51,8.38,19.45,8.51-8.85-3.46-19.65-8S353.39,83.59,353.45,83.46Z" style="fill:#e0e0e0"></path><path d="M350.64,90.59c.05-.14,8.85,3.46,19.65,8s19.5,8.38,19.45,8.51-8.86-3.46-19.65-8S350.58,90.72,350.64,90.59Z" style="fill:#e0e0e0"></path><path d="M347.77,96.75c.06-.14,8.86,3.46,19.65,8s19.51,8.38,19.45,8.51-8.85-3.46-19.65-8S347.72,96.88,347.77,96.75Z" style="fill:#e0e0e0"></path><path d="M345.27,102.78c.05-.13,8.85,3.47,19.65,8s19.5,8.38,19.45,8.51-8.86-3.46-19.66-8S345.21,102.91,345.27,102.78Z" style="fill:#e0e0e0"></path><path d="M382.07,284.19c-15.32-12.48-17.43-33.7-15.39-52.48.34-3.14.24-6.47,1.94-9.12s5.33-4.27,8-2.74c2.25,1.27,3.07,4.06,4.21,6.4a18.4,18.4,0,0,0,6.85,7.59c1.92,1.19,4.35,2,6.41,1.06,2.82-1.29,3.42-5,3.63-8.14q.6-8.74,1.19-17.49a29.2,29.2,0,0,1,1.63-9.21c1.19-2.9,3.54-5.49,6.58-6.11s6.58,1.38,7,4.49a29.91,29.91,0,0,1-.2,3.89c0,1.31.48,2.79,1.69,3.24s2.54-.33,3.54-1.18c3.46-2.91,5.95-6.82,8.3-10.71s4.64-7.88,7.82-11.11,7.43-5.65,11.93-5.58,9.06,3.2,9.86,7.68-2.09,8.77-5.15,12.13a69.89,69.89,0,0,1-15.56,12.77,5.78,5.78,0,0,0-2.62,2.43c-.83,2,1,4.25,3,5.09,2.28.95,4.82.9,7.24,1.36s5,1.74,5.73,4.11c1,3.29-1.88,6.45-4.67,8.44a59.66,59.66,0,0,1-18.45,8.9c-2.36.68-4.84,1.23-6.81,2.71s-3.3,4.21-2.35,6.49,3.79,3.21,6.23,2.94,4.69-1.42,7.05-2.11c4.42-1.31,9.94-.6,12.42,3.32,1.63,2.57,1.53,6,.4,8.82a23,23,0,0,1-5.31,7.38,60.34,60.34,0,0,1-27,16.13c-10.22,2.72-19.52,3-29.16-1.39" style="fill:#f5f5f5"></path><path d="M380.79,298.13a136.71,136.71,0,0,1,7-25.38,279.84,279.84,0,0,1,13.35-29.33l3.9-7.51c1.28-2.46,2.55-4.91,3.95-7.22a140.8,140.8,0,0,1,8.76-12.82c3-3.94,6-7.57,8.77-11s5.5-6.46,8.07-9.18a111,111,0,0,1,13.05-11.89c1.65-1.28,3-2.23,3.85-2.86l1-.72a2.1,2.1,0,0,1,.36-.22,3,3,0,0,1-.33.27l-1,.76c-.87.66-2.16,1.64-3.78,2.95a116.06,116.06,0,0,0-12.89,12c-2.55,2.72-5.21,5.82-8,9.2s-5.75,7-8.72,11a142.79,142.79,0,0,0-8.7,12.79c-1.38,2.3-2.64,4.72-3.93,7.19s-2.57,5-3.89,7.5a287.46,287.46,0,0,0-13.37,29.26,139.84,139.84,0,0,0-7.11,25.26" style="fill:#e0e0e0"></path><path d="M409.17,228.68a6,6,0,0,1-.2-1.35c-.1-.88-.21-2.15-.31-3.72-.21-3.15-.36-7.5-.5-12.3s-.34-9.14-.6-12.28c-.12-1.56-.24-2.83-.33-3.71a6.43,6.43,0,0,1-.07-1.37,6.34,6.34,0,0,1,.29,1.34c.16.87.34,2.14.52,3.7.36,3.14.63,7.49.77,12.3s.24,9,.33,12.3c0,1.47.09,2.72.12,3.72A5.83,5.83,0,0,1,409.17,228.68Z" style="fill:#e0e0e0"></path><path d="M449.92,224.15a8.33,8.33,0,0,1-1.62.08c-1,0-2.54,0-4.39.1-3.71.13-8.83.48-14.46,1.11s-10.71,1.45-14.36,2.13c-1.83.33-3.3.64-4.32.85a8,8,0,0,1-1.6.26,8.62,8.62,0,0,1,1.55-.49c1-.27,2.47-.64,4.29-1,3.64-.79,8.72-1.66,14.37-2.31a144.22,144.22,0,0,1,14.52-.94c1.86,0,3.37,0,4.41.08A8.77,8.77,0,0,1,449.92,224.15Z" style="fill:#e0e0e0"></path><path d="M388.35,272.05a2.65,2.65,0,0,1-.23-.51l-.58-1.51c-.5-1.31-1.17-3.22-2-5.6-1.6-4.74-3.6-11.37-5.71-18.71s-4-14-5.54-18.76c-.73-2.32-1.34-4.23-1.79-5.65-.19-.62-.35-1.13-.47-1.54a1.83,1.83,0,0,1-.13-.55,2.56,2.56,0,0,1,.24.51l.57,1.5c.5,1.31,1.17,3.22,2,5.6,1.6,4.75,3.6,11.37,5.71,18.72s4,14,5.54,18.76c.73,2.32,1.34,4.23,1.79,5.64l.48,1.55A1.84,1.84,0,0,1,388.35,272.05Z" style="fill:#e0e0e0"></path><path d="M443,258.79a2.41,2.41,0,0,1-.55.18l-1.59.41L435,260.81c-4.94,1.21-11.75,2.95-19.27,4.89s-14.36,3.63-19.33,4.73c-2.49.56-4.5,1-5.9,1.25l-1.61.3a2.45,2.45,0,0,1-.58.07,2.41,2.41,0,0,1,.55-.18l1.59-.41,5.86-1.43c4.94-1.2,11.75-2.95,19.28-4.89S430,261.51,435,260.4c2.49-.55,4.5-1,5.9-1.24l1.62-.3A2.39,2.39,0,0,1,443,258.79Z" style="fill:#e0e0e0"></path></g><g id="freepik--Floor--inject-36"><path d="M465.75,458.85c0,.15-94.62.26-211.3.26S43.13,459,43.13,458.85s94.59-.26,211.32-.26S465.75,458.71,465.75,458.85Z" style="fill:#263238"></path></g><g id="freepik--Note--inject-36"><path d="M170.77,77.79l24.13,73.56c9.58,2.67,19.34,4.79,31,1l54.92-19.87-32.65-84Z" style="fill:#e0e0e0"></path><polygon points="165.6 75.37 189.73 148.92 220.7 149.96 275.62 130.08 247.76 47.45 165.6 75.37" style="fill:#313030"></polygon><path d="M197,140.08l-7.28,8.84s6.5,3.55,13.09,3.7A48.18,48.18,0,0,0,220.7,150S206.7,150.79,197,140.08Z" style="fill:#313030"></path><path d="M197,140.08c-2.21,4.47-4.45,9.72-7.28,8.84,0,0,6.5,3.55,13.09,3.7A48.18,48.18,0,0,0,220.7,150S206.7,150.79,197,140.08Z" style="opacity:0.30000000000000004"></path><polygon points="166.12 93.83 194.14 63.69 187.85 57.76 158.98 87.73 166.12 93.83" style="fill:#e0e0e0"></polygon><polygon points="263.84 61.8 225.65 46.46 222.37 54.46 260.7 70.66 263.84 61.8" style="fill:#e0e0e0"></polygon><path d="M247.47,76.66c0,.13-13.9,5-31.14,10.87S185.06,98.05,185,97.91s13.89-5,31.14-10.87S247.42,76.52,247.47,76.66Z" style="fill:#263238"></path><path d="M251,88c0,.14-13.9,5-31.14,10.88s-31.27,10.51-31.31,10.38,13.89-5,31.14-10.88S251,87.88,251,88Z" style="fill:#263238"></path><path d="M254.77,97.88c0,.13-13.89,5-31.14,10.87s-31.26,10.52-31.31,10.38,13.9-5,31.15-10.87S254.73,97.74,254.77,97.88Z" style="fill:#263238"></path><path d="M258,107.51c0,.14-13.9,5-31.14,10.88s-31.26,10.51-31.31,10.38,13.89-5,31.14-10.88S257.93,107.38,258,107.51Z" style="fill:#263238"></path></g><g id="freepik--character-2--inject-36"><path d="M295,318.19l-4.84,45s-9.43-14.25-15.81-7.9c-6.08,6.06-16.82,50.25-16.82,50.25s-.14,14.41,7.52,18.22C289.62,436,317,413,317,413L313.09,284.2h0A51.64,51.64,0,0,0,295,318.19Z" style="fill:#313030"></path><path d="M377.89,286.91l-42.51-3.39c-.26-5,.09-24.17.09-24.17s-17.69-2.75-17.9-20.43,2.84-58.3,2.84-58.3h0a61.44,61.44,0,0,1,61.76,7.77l2.62,2Z" style="fill:#b78876"></path><path d="M335.44,259.1a41.14,41.14,0,0,0,23.06-6.55s-5.45,12.72-23.1,11.13Z" style="fill:#aa6550"></path><path d="M382.62,208.72c.3-.13,12.15-3.59,11.76,8.5s-12.44,9.21-12.45,8.86S382.62,208.72,382.62,208.72Z" style="fill:#b78876"></path><path d="M385.76,221.62c.06,0,.21.15.56.33a2.08,2.08,0,0,0,1.57.08c1.3-.43,2.44-2.42,2.57-4.6a7.06,7.06,0,0,0-.5-3,2.42,2.42,0,0,0-1.53-1.67,1.06,1.06,0,0,0-1.26.54c-.17.33-.11.57-.17.59s-.25-.21-.14-.71a1.42,1.42,0,0,1,.5-.74,1.63,1.63,0,0,1,1.17-.27,3,3,0,0,1,2.15,2,7.31,7.31,0,0,1,.62,3.39c-.16,2.43-1.48,4.67-3.24,5.12a2.24,2.24,0,0,1-1.92-.38C385.78,221.91,385.72,221.64,385.76,221.62Z" style="fill:#aa6550"></path><path d="M324.31,208a2.53,2.53,0,0,0,2.44,2.55,2.41,2.41,0,0,0,2.6-2.28,2.53,2.53,0,0,0-2.43-2.55A2.43,2.43,0,0,0,324.31,208Z" style="fill:#263238"></path><path d="M323.76,205.5c.31.33,2.23-1.09,4.94-1.08s4.71,1.37,5,1c.14-.15-.18-.75-1-1.38a6.94,6.94,0,0,0-4-1.23,6.67,6.67,0,0,0-3.94,1.27C323.89,204.76,323.61,205.35,323.76,205.5Z" style="fill:#263238"></path><path d="M350.93,209a2.53,2.53,0,0,0,2.43,2.55,2.43,2.43,0,0,0,2.61-2.28,2.54,2.54,0,0,0-2.44-2.55A2.42,2.42,0,0,0,350.93,209Z" style="fill:#263238"></path><path d="M350.47,206c.32.33,2.23-1.09,4.95-1.08s4.71,1.37,5,1c.15-.14-.17-.74-1-1.37a7,7,0,0,0-4-1.24,6.72,6.72,0,0,0-3.94,1.27C350.61,205.27,350.32,205.86,350.47,206Z" style="fill:#263238"></path><path d="M340.61,226.16c0-.15-1.68-.44-4.41-.79-.7-.07-1.35-.21-1.47-.69a3.58,3.58,0,0,1,.46-2.05q1-2.52,2.05-5.29c2.86-7.52,4.92-13.71,4.61-13.82s-2.86,5.9-5.71,13.42c-.68,1.85-1.34,3.62-2,5.32a3.93,3.93,0,0,0-.36,2.72,1.7,1.7,0,0,0,1.14,1,4.47,4.47,0,0,0,1.18.17C338.89,226.31,340.6,226.32,340.61,226.16Z" style="fill:#263238"></path><path d="M349.77,195.36c.27.74,3,.39,6.17.77s5.77,1.25,6.19.59c.19-.32-.26-1-1.3-1.73a10.85,10.85,0,0,0-9.41-1C350.25,194.43,349.66,195,349.77,195.36Z" style="fill:#263238"></path><path d="M324.76,197.64c.48.61,2.35,0,4.6-.06s4.16.42,4.6-.23c.19-.31-.11-.93-.94-1.51a6.64,6.64,0,0,0-7.41.22C324.81,196.7,324.55,197.33,324.76,197.64Z" style="fill:#263238"></path><path d="M311.8,169.46a6.53,6.53,0,0,1,2.41-5.84,4.65,4.65,0,0,1,6,.45,5.4,5.4,0,0,1,4.64-6.55c2.89-.18,5.35,2,8.13,2.76s5.64.1,8.26-.95,5.06-2.51,7.71-3.48a22.62,22.62,0,0,1,28.93,13.28c3.87-1.21,8.26.76,10.65,4s3,7.58,2.52,11.6a37.17,37.17,0,0,1-2,7.94c0,.23,0,.45,0,.68-.19,9.72-1.29,21.14-5.44,21.21-7.23.11-5.5-13.52-5.5-13.52-8.88-3.42-5.57-16.72-7.79-18.74s-6.86-6.7-25.44,2.79c-7.22,3.69-16.81,3.58-22.05,2.39l-.46-.1-.11,0a1.56,1.56,0,0,1-.15-.06,16.67,16.67,0,0,1-4.77-2,9.43,9.43,0,0,1-3.92-4.37,5.13,5.13,0,0,1,1-5.53A11.35,11.35,0,0,1,311.8,169.46Z" style="fill:#263238"></path><path d="M412.67,397.89,414,423,417,459H303.37l4.94-53.26-9.68-84.15c.84-29.74,12.26-42.1,35.62-44.94l-1.84.23c3.22-.38,0,0,1.84-.23a75.24,75.24,0,0,0,45.33,0h0c7,.3,12.81,2.45,18.77,3.6,18.77,3.59,34.22,18.09,38,30.72,3.09,10.39,25.44,100.51,25.44,100.51H417.3Z" style="fill:#313030"></path><path d="M338.3,234.52a12.35,12.35,0,0,0,1.58,3.09,4.11,4.11,0,0,0,2.92,1.7,3.72,3.72,0,0,0,3.11-1.7,5.85,5.85,0,0,0,.87-3.54c0-1.12-.56-2.45-1.67-2.58a2.79,2.79,0,0,0-1.35.29l-5.83,2.37" style="fill:#aa6550"></path><path d="M340.63,239.32a8.39,8.39,0,0,0,3.12-.38,4.47,4.47,0,0,0,2.35-2.14,4.67,4.67,0,0,0,.07-3.81,4.19,4.19,0,0,0-.5-.88c-.24-.24-.19-.23-.44-.19a8.58,8.58,0,0,0-.94.37l-1,.39c-1.25.5-2.38.94-3.33,1.3-1.91.71-3.12,1.09-3.18,1s1.05-.75,2.89-1.64c.92-.44,2-1,3.25-1.51l.94-.42a11,11,0,0,1,1.07-.44,1.35,1.35,0,0,1,.86,0,1.48,1.48,0,0,1,.64.51,4.73,4.73,0,0,1,.66,1.1,5.46,5.46,0,0,1-.18,4.67,4.94,4.94,0,0,1-3,2.39,4.63,4.63,0,0,1-2.53.1C340.88,239.58,340.61,239.38,340.63,239.32Z" style="fill:#263238"></path><path d="M298.44,392.87l-26.76-82.16-2.42-13.79s-7.28-30.76-7.61-33.8c-.37-3.52-2.16-4.18-3.44-4-2,.36-3.17,3-2.94,6,.08,1,2,17.5,2,17.5a39.22,39.22,0,0,0-3.67-4.1c-2.77-2.82-8.68-4-14.53-3.15s-7.42,1.57-7.2,3.86a2.9,2.9,0,0,0,1.39,2.09,5.73,5.73,0,0,0,4,.92c9.39-1.19,12.46,3.57,12.46,3.57l.32,1.8s-6.16-3.46-10.52-1.25a5.63,5.63,0,0,0-1.7,1.32,7.4,7.4,0,0,0-5.19,11.66c.72,1,2,1.9,3.15,1.53a4,4,0,0,0,1.56-1.19,5.74,5.74,0,0,1,.77-.71l1.59,4.93s4.18,10.89,5.46,15.83l13,82.73a20.78,20.78,0,0,0,24.11,17.23h0A20.77,20.77,0,0,0,298.44,392.87Z" style="fill:#b78876"></path><path d="M268.85,309.87c-1.67.66-3.58-.42-4.68-1.84s-1.67-3.19-2.66-4.69c-3-4.5-9.14-6.13-11.88-10.76-.39-.65-.66-1.56-.11-2.07s1.33-.23,2,0l16.44,6.91" style="fill:#b78876"></path><path d="M267.93,297.46a7.72,7.72,0,0,0-1.7-.93c-1.12-.54-2.76-1.28-4.79-2.19l-7.14-3.12-2.08-.89a3.51,3.51,0,0,0-2.63-.45,1.49,1.49,0,0,0-.88,1.44,3.18,3.18,0,0,0,.41,1.4,12,12,0,0,0,1.58,2.1c2.45,2.56,5.41,4,7.63,5.83a13.34,13.34,0,0,1,2.8,2.89c.71,1,1.2,2.15,1.76,3.13a6.3,6.3,0,0,0,4,3.48c1.32.25,2-.26,1.94-.28a5,5,0,0,1-1.84-.1,6.07,6.07,0,0,1-3.48-3.44c-.51-1-1-2.11-1.7-3.26a13.82,13.82,0,0,0-2.91-3.14c-2.28-1.93-5.22-3.43-7.47-5.81a10.62,10.62,0,0,1-1.44-1.89c-.37-.64-.4-1.33,0-1.44s1.16.13,1.86.43l2.08.86,7.23,2.93c2.07.81,3.75,1.46,4.91,1.89A7,7,0,0,0,267.93,297.46Z" style="fill:#aa6550"></path><path d="M250.26,287.75a7.21,7.21,0,0,0-1.42-3.06,5.65,5.65,0,0,0-3.09-1.77,14.57,14.57,0,0,0-4.52-.16,23.2,23.2,0,0,1-4.69.09,7.58,7.58,0,0,1-3.65-1.35,3,3,0,0,1-1.19-2.34,1.62,1.62,0,0,1,.22-.93c.06,0,0,.34,0,.92a2.77,2.77,0,0,0,1.22,2,7.32,7.32,0,0,0,3.43,1.12,24.78,24.78,0,0,0,4.57-.15,14.14,14.14,0,0,1,4.72.24,5.94,5.94,0,0,1,3.3,2.06,5.33,5.33,0,0,1,1.06,2.39A1.88,1.88,0,0,1,250.26,287.75Z" style="fill:#aa6550"></path><path d="M255.2,264a19.38,19.38,0,0,1,.4,3.27c.21,2.25.47,4.93.76,7.89s.63,5.63.88,7.88a18.77,18.77,0,0,1,.29,3.28,14.55,14.55,0,0,1-.75-3.21c-.35-2-.75-4.79-1.07-7.88s-.51-5.9-.58-7.93A14.83,14.83,0,0,1,255.2,264Z" style="fill:#aa6550"></path><path d="M246.94,291.86a4.45,4.45,0,0,1-1-.27,3,3,0,0,0-2.55.15,1.62,1.62,0,0,0-.7,1.46,8.35,8.35,0,0,0,.38,2.11,3.67,3.67,0,0,1-.11,2.62,3.14,3.14,0,0,1-2.37,1.58,3.6,3.6,0,0,1-2.7-.84,4.54,4.54,0,0,1-1.46-2.16,14.52,14.52,0,0,1-.39-4.22,8.14,8.14,0,0,1,.55-2.8,2,2,0,0,1,.58-.88s-.16.34-.34,1a9.81,9.81,0,0,0-.32,2.73,15.18,15.18,0,0,0,.5,4,3.55,3.55,0,0,0,3.5,2.53,2.54,2.54,0,0,0,1.88-1.23,3.13,3.13,0,0,0,.09-2.18,8.83,8.83,0,0,1-.33-2.27,2.1,2.1,0,0,1,1-1.83,3.15,3.15,0,0,1,2.87,0C246.65,291.62,247,291.82,246.94,291.86Z" style="fill:#aa6550"></path><path d="M238.12,298.14s.16.33,0,.94a2.9,2.9,0,0,1-1.73,1.9,3.84,3.84,0,0,1-3.73-.73,6.25,6.25,0,0,1-2.07-4.16,7.61,7.61,0,0,1,.93-4.55,7.13,7.13,0,0,1,2.69-2.67,6.91,6.91,0,0,1,2.39-.85,2,2,0,0,1,.93,0,12.14,12.14,0,0,0-3.08,1.25,7,7,0,0,0-3.21,6.76,5.8,5.8,0,0,0,1.81,3.77,3.39,3.39,0,0,0,3.18.75,2.74,2.74,0,0,0,1.65-1.54C238.09,298.48,238.06,298.14,238.12,298.14Z" style="fill:#aa6550"></path><path d="M250.65,307.93a2.6,2.6,0,0,1,1.57-.15,6.14,6.14,0,0,1,3.65,1.71l-.53.22a16,16,0,0,1,.13-2.24c.49-4.34,2.53-7.35,2.65-7.24s-1.53,3.14-2,7.32a20.85,20.85,0,0,0-.15,2.16l0,.75-.52-.53a6.51,6.51,0,0,0-3.27-1.76C251.23,308,250.65,308,250.65,307.93Z" style="fill:#aa6550"></path><path d="M247.32,279.93c.16.06-.35,1.31-1.73,2.08s-2.7.59-2.67.42,1.16-.3,2.35-1S247.15,279.83,247.32,279.93Z" style="fill:#aa6550"></path><path d="M319.64,279.92s-.37.4-1,1.17a11.83,11.83,0,0,0-2.32,3.72,4.9,4.9,0,0,0-.26,1.45,3.22,3.22,0,0,0,.38,1.51,5.3,5.3,0,0,0,2.88,2.14,28.31,28.31,0,0,0,9.15,1.29c1.72,0,3.58.1,5.48.21l2.91.34c1,.11,2,.38,3,.56a30.46,30.46,0,0,1,12,5.34,22,22,0,0,1,5,5.21,18.56,18.56,0,0,1,.95,1.62c.29.59.49,1.16.73,1.74a20.37,20.37,0,0,1,1,3.65,23.22,23.22,0,0,1-2.35,15.37,22.41,22.41,0,0,1-11.82,10.09,23.1,23.1,0,0,1-7.36,1.46,28.58,28.58,0,0,1-7.12-.86,44.43,44.43,0,0,0-6.54-1.17,11.26,11.26,0,0,0-5.94,1.05,15.26,15.26,0,0,0-4.45,3.61c-1.25,1.4-2.31,2.87-3.36,4.26-2.07,2.79-4.27,5.25-6.83,6.54a8.45,8.45,0,0,1-3.81,1,8.56,8.56,0,0,1-3.25-.6,7.18,7.18,0,0,1-2.23-1.41,5.33,5.33,0,0,1-1.12-1.58,3.46,3.46,0,0,1-.35-1.54c.07,0,.09.55.54,1.45a5.5,5.5,0,0,0,1.14,1.44,7,7,0,0,0,2.16,1.26,7.94,7.94,0,0,0,6.65-.53c2.4-1.27,4.49-3.66,6.51-6.46,1-1.4,2.08-2.9,3.35-4.36A15.93,15.93,0,0,1,318,335a12.15,12.15,0,0,1,6.39-1.2,46.13,46.13,0,0,1,6.69,1.15,27.74,27.74,0,0,0,6.88.81,22.51,22.51,0,0,0,7-1.42,21.5,21.5,0,0,0,11.27-9.64,22.28,22.28,0,0,0,2.26-14.68,20.75,20.75,0,0,0-1-3.49c-.24-.56-.44-1.14-.69-1.64a14.3,14.3,0,0,0-.88-1.52,21.22,21.22,0,0,0-4.72-5,29.82,29.82,0,0,0-11.62-5.26c-1-.19-2-.46-2.93-.57l-2.86-.37c-1.88-.13-3.68-.21-5.43-.27a28.49,28.49,0,0,1-9.34-1.49A5.8,5.8,0,0,1,316,288a3.6,3.6,0,0,1-.39-1.75,5.15,5.15,0,0,1,.33-1.57,11.09,11.09,0,0,1,2.55-3.73A5.52,5.52,0,0,1,319.64,279.92Z" style="fill:#fafafa"></path><path d="M395.71,346.6a7.52,7.52,0,0,1-.48-2.25,18.46,18.46,0,0,1,.41-6.27,24.21,24.21,0,0,1,3.89-8.49,27.92,27.92,0,0,1,8.39-7.74,35.19,35.19,0,0,1,10.68-4,46,46,0,0,1,9.25-.95,51.53,51.53,0,0,1,6.24.31,8.47,8.47,0,0,1,2.25.4c0,.18-3.25-.18-8.48,0a50.59,50.59,0,0,0-9.06,1.16,36,36,0,0,0-10.35,4,27.89,27.89,0,0,0-8.15,7.41,24.47,24.47,0,0,0-3.94,8.1,20.78,20.78,0,0,0-.73,6.06A15.06,15.06,0,0,1,395.71,346.6Z" style="fill:#fafafa"></path><path d="M450.35,364a7.23,7.23,0,0,1-1.18,1.76,28.46,28.46,0,0,1-4,4.13,32.78,32.78,0,0,1-7.21,4.64,32.21,32.21,0,0,1-20.6,2.49,32.63,32.63,0,0,1-8.11-2.8,28.59,28.59,0,0,1-4.89-3.05,6.91,6.91,0,0,1-1.56-1.43c.12-.16,2.4,1.83,6.77,3.82a33.59,33.59,0,0,0,35.13-4.24C448.45,366.33,450.19,363.85,450.35,364Z" style="fill:#fafafa"></path><path d="M400.12,360.78a4.5,4.5,0,0,1-.91.38,6.92,6.92,0,0,0-2.29,1.52,11.08,11.08,0,0,0-2.3,3.69A34.73,34.73,0,0,0,393,372a65.4,65.4,0,0,1-1.62,7,16.7,16.7,0,0,1-1.73,3.73,14.73,14.73,0,0,1-2.92,3.26,22.76,22.76,0,0,1-8.26,4.17c-3.08.92-6.34,1.42-9.62,2.06a40.34,40.34,0,0,0-17.09,7.12,27.87,27.87,0,0,0-5.7,5.74,25.18,25.18,0,0,0-3.25,6.26,21.58,21.58,0,0,0-1.06,10.12c.36,2.41.91,3.67.8,3.71a4,4,0,0,1-.42-.9,9.27,9.27,0,0,1-.39-1.14,13.94,13.94,0,0,1-.39-1.6,21.06,21.06,0,0,1,.76-10.42,25.44,25.44,0,0,1,3.24-6.53,28.6,28.6,0,0,1,5.82-6,40.57,40.57,0,0,1,17.48-7.38c3.31-.65,6.54-1.14,9.53-2a22,22,0,0,0,7.94-3.93,13.77,13.77,0,0,0,2.76-3,16.05,16.05,0,0,0,1.68-3.5,68.51,68.51,0,0,0,1.72-6.93,33.35,33.35,0,0,1,1.79-5.72,11,11,0,0,1,2.57-3.75,6.24,6.24,0,0,1,2.49-1.43A3,3,0,0,1,400.12,360.78Z" style="fill:#fafafa"></path><path d="M373.33,356.61a4.2,4.2,0,0,1,.52,2.05,8.83,8.83,0,0,1-1.6,5.53,8.52,8.52,0,0,1-3,2.73,7.69,7.69,0,0,1-2.17.79,8.62,8.62,0,0,1-2.44.1,9.51,9.51,0,0,1-4.8-1.94,8.49,8.49,0,0,1-3.1-4.64,7.9,7.9,0,0,1-.05-3.68,8.06,8.06,0,0,1,1.6-3.14,16.15,16.15,0,0,1,2.19-2.39,7.78,7.78,0,0,1,1.27-.95,3.35,3.35,0,0,1,1.57-.55l.13.89-.49.12-.25-.86a8.49,8.49,0,0,1,5.51.3,8.92,8.92,0,0,1,3.48,2.41,7.52,7.52,0,0,1,1.42,2.3c.21.59.26.92.22.93a13.86,13.86,0,0,0-2-2.87,8.9,8.9,0,0,0-3.35-2.08,7.89,7.89,0,0,0-5-.13l-.25-.86.49-.14.14.9a4.52,4.52,0,0,0-2.24,1.3,16.17,16.17,0,0,0-2,2.29,6.59,6.59,0,0,0-1.34,6,7.66,7.66,0,0,0,2.71,4.09,8.8,8.8,0,0,0,4.28,1.79,7.85,7.85,0,0,0,2.17-.05,7.27,7.27,0,0,0,1.94-.65,8,8,0,0,0,2.81-2.4,8.84,8.84,0,0,0,1.79-5.09C373.46,357.36,373.23,356.64,373.33,356.61Z" style="fill:#fafafa"></path><path d="M308.8,324a.7.7,0,0,1,0,.27c0,.2,0,.46,0,.78,0,.73-.09,1.74-.15,3-.16,2.62-.31,6.41-.52,11.09-.39,9.37-.78,22.31-1.08,36.62s-.49,27.26-.63,36.63c-.07,4.66-.13,8.44-.17,11.11,0,1.27-.05,2.28-.06,3,0,.32,0,.58,0,.79a.94.94,0,0,1,0,.27.8.8,0,0,1,0-.27c0-.21,0-.47,0-.79,0-.73,0-1.74,0-3v-11.1c0-9.38.17-22.33.48-36.65s.74-27.25,1.23-36.62c.26-4.68.47-8.47.69-11.08.1-1.28.18-2.29.24-3,0-.32.06-.58.08-.79A1.11,1.11,0,0,1,308.8,324Z" style="fill:#263238"></path><g style="opacity:0.2"><path d="M289.69,416.93c5.58,2.67,12.87-2.46,15.72-7.94,0,0,1.49-12.1,1.29-18.28-.39-11.44.45-22.77.06-34.21a35.89,35.89,0,0,1-8.16,18.58c-1.23,1.45-2.61,2.89-3.07,4.73-.82,3.3,1.7,9.23,3.32,12.22,5,9.14-5.9,25-8.8,24.67"></path></g><g style="opacity:0.2"><path d="M394.12,342.28q2.73,34.2,5.48,68.41a19.9,19.9,0,0,0,1.2,6.33,6.84,6.84,0,0,0,4.6,4.2c3.24.66,6.39-2.13,7.3-5.31s.19-6.57-.61-9.78c-1.36-5.47-2.89-10.89-4.43-16.31q-6.69-23.6-13.39-47.19"></path></g><path d="M331.44,459.07a13.06,13.06,0,0,0,1.53-3.63c.56-2.47.21-6.29-1.71-10.42-.94-2.07-2.27-4.22-3.61-6.58a28.8,28.8,0,0,1-3.38-8.08,19.25,19.25,0,0,1,.7-9.68c1-3.22,2.45-6.35,3.62-9.63a28.73,28.73,0,0,0,.5-19.13,28,28,0,0,0-3.79-7.58,29.51,29.51,0,0,0-5.05-5.43,30,30,0,0,0-9.39-5.24c-2.43-.81-3.85-1-3.83-1.12a3.41,3.41,0,0,1,1,.09,19.71,19.71,0,0,1,2.91.65,28.49,28.49,0,0,1,9.73,5,29.25,29.25,0,0,1,5.29,5.49,28.77,28.77,0,0,1,4,7.79,29.39,29.39,0,0,1-.44,19.78c-1.2,3.34-2.66,6.45-3.62,9.58a18.31,18.31,0,0,0-.74,9.18,27.78,27.78,0,0,0,3.2,7.86c1.29,2.37,2.6,4.55,3.53,6.7,1.88,4.29,2.14,8.28,1.42,10.82a9.81,9.81,0,0,1-1.23,2.74C331.71,458.83,331.47,459.09,331.44,459.07Z" style="fill:#fafafa"></path><path d="M425.32,294.56a5.54,5.54,0,0,1-1,2,14.66,14.66,0,0,1-4.34,4.22,18.63,18.63,0,0,1-8.53,2.82,28.38,28.38,0,0,1-10.89-1.39,22.86,22.86,0,0,1-9.51-5.52,14.09,14.09,0,0,1-2.77-4,13.15,13.15,0,0,1-1.08-4.1,10.35,10.35,0,0,1,1.12-5.95,6.37,6.37,0,0,1,.5-.81,3.4,3.4,0,0,1,.44-.55c.25-.27.4-.41.43-.38s-.45.66-1,1.92a10.69,10.69,0,0,0-.74,5.69,12.67,12.67,0,0,0,1.12,3.82,13.71,13.71,0,0,0,2.68,3.69,22.38,22.38,0,0,0,9.13,5.2,28.43,28.43,0,0,0,10.51,1.43,18.37,18.37,0,0,0,8.21-2.49,16.07,16.07,0,0,0,4.4-3.82A21.44,21.44,0,0,1,425.32,294.56Z" style="fill:#fafafa"></path><path d="M411.63,402.13s-.05-.09-.11-.28-.15-.49-.26-.84c-.22-.77-.54-1.85-.95-3.23l-3.4-11.93c-2.84-10.11-6.74-24-11-39.4-2.14-7.7-4.17-15-6-21.71a73.64,73.64,0,0,1-2.13-9.62,29.45,29.45,0,0,1,0-8.59,18.52,18.52,0,0,1,5.66-10.88,13.38,13.38,0,0,1,2.81-1.89l.81-.34a.92.92,0,0,1,.28-.1,15.83,15.83,0,0,0-3.77,2.48,18.47,18.47,0,0,0-5.42,10.79,29.09,29.09,0,0,0,.09,8.47,73.74,73.74,0,0,0,2.16,9.55c1.86,6.68,3.91,14,6.06,21.7,4.25,15.39,8.1,29.32,10.89,39.44,1.37,5,2.47,9.11,3.25,12,.36,1.39.65,2.49.85,3.27.09.35.16.63.21.85A1.09,1.09,0,0,1,411.63,402.13Z" style="fill:#263238"></path><path d="M370.9,180.68a9.33,9.33,0,0,0,0-2.14,8.35,8.35,0,0,0-2.76-5,11.24,11.24,0,0,0-8-2.63c-3.27,0-6.75,1.1-10.35,2.31-1.8.59-3.59,1.16-5.35,1.55a27.11,27.11,0,0,1-5.17.63,28.29,28.29,0,0,1-8.72-1.14,27,27,0,0,1-5.45-2.32,14.09,14.09,0,0,1-1.37-.84,2.32,2.32,0,0,1-.45-.34s.68.38,1.92,1a29.28,29.28,0,0,0,5.46,2.13,28.39,28.39,0,0,0,8.59,1,27.91,27.91,0,0,0,5.08-.64c1.73-.39,3.49-1,5.3-1.55,3.59-1.21,7.14-2.3,10.5-2.3a11.51,11.51,0,0,1,8.22,2.84,8.37,8.37,0,0,1,2.72,5.21A4.83,4.83,0,0,1,370.9,180.68Z" style="fill:#455a64"></path><path d="M384.66,210.57s-.1-.12-.24-.37-.32-.63-.55-1.13a22.57,22.57,0,0,1-1.4-4.39,24,24,0,0,1-.46-6.84,60,60,0,0,1,1.58-8.22,16.05,16.05,0,0,0,0-8.12,8.18,8.18,0,0,0-1.69-3.09,6.22,6.22,0,0,0-2.54-1.66,5.78,5.78,0,0,0-4.37.11,7.8,7.8,0,0,0-1.35.95,3.32,3.32,0,0,1,1.26-1.13,5.89,5.89,0,0,1,4.58-.28,6.57,6.57,0,0,1,2.74,1.72,8.68,8.68,0,0,1,1.83,3.23,16.38,16.38,0,0,1,0,8.38,63.87,63.87,0,0,0-1.61,8.15,25.08,25.08,0,0,0,.34,6.72,26.24,26.24,0,0,0,1.23,4.39C384.44,210,384.7,210.55,384.66,210.57Z" style="fill:#455a64"></path><path d="M372.6,179.25a3.8,3.8,0,0,1,0-.71c0-.51,0-1.18.08-2a23.82,23.82,0,0,0-.82-7.35,13.13,13.13,0,0,0-2.36-4.46,9.16,9.16,0,0,0-4.74-3.13,11.92,11.92,0,0,0-6.33.26,29,29,0,0,0-6.33,2.87,51.08,51.08,0,0,1-6.28,3.22,19.07,19.07,0,0,1-6.47,1.3,20.45,20.45,0,0,1-5.92-.72,23.23,23.23,0,0,1-4.8-2,19.53,19.53,0,0,1-5.69-4.86,12.71,12.71,0,0,1-1.16-1.68,3.5,3.5,0,0,1-.34-.62,3.23,3.23,0,0,1,.43.56,14.47,14.47,0,0,0,1.22,1.61,20.39,20.39,0,0,0,5.71,4.66,23.08,23.08,0,0,0,4.74,1.89,20.44,20.44,0,0,0,5.8.66,18.74,18.74,0,0,0,6.29-1.29,51.72,51.72,0,0,0,6.21-3.21,29.66,29.66,0,0,1,6.45-2.9,12.45,12.45,0,0,1,6.59-.24,9.52,9.52,0,0,1,4.95,3.33,13.12,13.12,0,0,1,2.38,4.63,22.26,22.26,0,0,1,.67,7.45c-.05.89-.12,1.57-.18,2A2.92,2.92,0,0,1,372.6,179.25Z" style="fill:#455a64"></path><path d="M346.19,429.3,421,418.15l-1.2-6.66H460l1.17,10.24a30.93,30.93,0,0,1-30.07,36.78l-87.22-1Z" style="fill:#b78876"></path><path d="M351.59,430.59c-.4.13-5.44-2.13-9.95-4.22a32.61,32.61,0,0,0-15.32-3l-20.79,1.06s1.28,3.43,3.49,4.65,15.13,1.48,15.13,1.48l-.67.68a14.93,14.93,0,0,1-10.34,4.53l-2,.05a19.39,19.39,0,0,1-4.34-.85l-5.13-2.07c-1.55-.7-3.19-.59-3.87,1-.61,1.41-.16,3.36,4.08,5.49,2.36,1.19,11.14,4.23,11.14,4.23a20.48,20.48,0,0,0,.51,3.7c.38,1.28,3.83,2.55,3.83,2.55a46.53,46.53,0,0,0,3.06,5.5c.4.45,3.53,1.42,6.85,2.36a29.43,29.43,0,0,0,16.38-.13l7.93-2.36V431.11" style="fill:#b78876"></path><path d="M323.14,446.35a23.68,23.68,0,0,1-10.49-2.76c.06-.14,2.33.74,5.22,1.49S323.16,446.2,323.14,446.35Z" style="fill:#aa6550"></path><path d="M322.41,451.22a5.21,5.21,0,0,1-2.92-.21,5.31,5.31,0,0,1-2.63-1.3,20,20,0,0,1,2.77.8A20.11,20.11,0,0,1,322.41,451.22Z" style="fill:#aa6550"></path><path d="M440.73,435.59c-.1,0-.59-1.45-1.79-3.64a28,28,0,0,0-2.4-3.66,31.05,31.05,0,0,0-3.63-3.93,31.73,31.73,0,0,0-4.3-3.19,28.84,28.84,0,0,0-3.89-2c-2.31-.95-3.84-1.29-3.81-1.39A4.7,4.7,0,0,1,422,418a9.73,9.73,0,0,1,1.24.33c.48.15,1,.3,1.62.54a25.51,25.51,0,0,1,4,1.92,29.68,29.68,0,0,1,4.4,3.21,30.65,30.65,0,0,1,3.67,4,25.62,25.62,0,0,1,2.33,3.78c.31.55.51,1.09.72,1.55a9.9,9.9,0,0,1,.45,1.2A4.44,4.44,0,0,1,440.73,435.59Z" style="fill:#aa6550"></path><path d="M326.21,428.72a9.36,9.36,0,0,1-1.6,1.71,26.21,26.21,0,0,1-4.53,3.43,18,18,0,0,1-5.31,2.05,7.43,7.43,0,0,1-2.34.25c-.05-.19,3.6-.52,7.38-2.75a34.54,34.54,0,0,0,4.55-3.26A12.1,12.1,0,0,1,326.21,428.72Z" style="fill:#aa6550"></path></g><g id="freepik--character-1--inject-36"><path d="M111.08,405c1.78,0-13.62,41.38-17.59,51.95-.44,1.17-.74,2.2-.74,2.2l107.82.18L199.3,359a1.5,1.5,0,0,0,0-.2l-9-71.76a1.78,1.78,0,0,0-1.29-1.49c-4.27-1.15-19.66-5.12-31.43-5.56-13.79-.51-33.75,2.23-33.75,2.23S105.9,284,96,287.6a1.76,1.76,0,0,0-1.15,1.91Z" style="fill:#313030"></path><path d="M160.87,360.5a7.35,7.35,0,0,1-.54,1.31,12.37,12.37,0,0,1-.76,1.47,20.09,20.09,0,0,1-1.14,1.87,23.37,23.37,0,0,1-1.58,2.15,27.2,27.2,0,0,1-2,2.29,35.1,35.1,0,0,1-5.4,4.45,36.09,36.09,0,0,1-6.24,3.18c-1,.35-2,.71-2.91.94a23.46,23.46,0,0,1-2.6.58,20.68,20.68,0,0,1-2.17.3,11.87,11.87,0,0,1-1.66.11,6.43,6.43,0,0,1-1.41,0c0-.11,2-.1,5.17-.74a25.69,25.69,0,0,0,2.55-.64c.92-.24,1.86-.61,2.85-1a37,37,0,0,0,6.13-3.17,36.33,36.33,0,0,0,5.35-4.35c.73-.77,1.45-1.48,2-2.23a24,24,0,0,0,1.61-2.08C160,362.31,160.77,360.45,160.87,360.5Z" style="fill:#263238"></path><g style="opacity:0.2"><path d="M96.41,449.1a31.73,31.73,0,0,0,30.93-3.87c3.89-2.82,7.15-6.51,11.35-8.86,5.82-3.24,12.75-3.55,19.4-4,8.89-.64,17.86-1.73,26.22-4.83a10.48,10.48,0,0,0,4.59-2.77c1.15-1.39,1.54-3.58.41-5s-3.28-1.52-5.13-1.46c-27.88.82-53.36,3.05-80.5,9.5"></path></g><path d="M126.46,176.76c8.62-8.78,22.22-14,33.48-9,7.58,3.32,12.72,10.43,19.37,15.34,4.84,3.58,10.82,6.35,13.36,11.81,2.24,4.81,1.16,10.42.62,15.7s-.16,11.37,3.93,14.76c2.14,1.77,5,2.48,7.39,3.86,4.87,2.79,7.76,8.22,8.8,13.73s.48,11.19-.08,16.78l-23.21,4.42-3.81-6.41L185,267.8l-29.62,2.67Z" style="fill:#263238"></path><path d="M122.63,186.34l0,6.45-1.83,96.81c-.16,11.22,10.58,20.77,22.6,20.85h0c12.13.08,17.08-9,17.43-20.37.36-11.89,1-24.41,1-24.41s15.39-2.12,19.12-22c1.85-9.9,1.8-26.21,1.33-39.56a21.13,21.13,0,0,0-22.75-20.33Z" style="fill:#ffbe9d"></path><path d="M176.92,216.94a2.55,2.55,0,0,1-2.54,2.51,2.45,2.45,0,0,1-2.58-2.38,2.57,2.57,0,0,1,2.54-2.52A2.45,2.45,0,0,1,176.92,216.94Z" style="fill:#263238"></path><path d="M178.43,212.46c-.33.33-2.23-1.17-5-1.23s-4.82,1.25-5.11.9c-.14-.15.2-.74,1.1-1.36a6.94,6.94,0,0,1,4.1-1.14,6.73,6.73,0,0,1,4,1.4C178.32,211.7,178.59,212.31,178.43,212.46Z" style="fill:#263238"></path><path d="M149.74,216.94a2.56,2.56,0,0,1-2.54,2.51,2.45,2.45,0,0,1-2.58-2.38,2.57,2.57,0,0,1,2.54-2.52A2.45,2.45,0,0,1,149.74,216.94Z" style="fill:#263238"></path><path d="M151.29,212.23c-.33.32-2.23-1.17-5-1.24s-4.82,1.26-5.11.91c-.14-.15.2-.75,1.1-1.36a7,7,0,0,1,4.1-1.15,6.77,6.77,0,0,1,4,1.4C151.18,211.47,151.45,212.08,151.29,212.23Z" style="fill:#263238"></path><path d="M160.74,233c0-.16,1.72-.41,4.5-.69.71-.05,1.38-.17,1.51-.65a3.56,3.56,0,0,0-.41-2.1c-.61-1.73-1.26-3.53-1.94-5.43-2.68-7.71-4.6-14-4.29-14.16s2.74,6.07,5.42,13.79c.65,1.9,1.27,3.71,1.85,5.45a4,4,0,0,1,.29,2.77,1.76,1.76,0,0,1-1.19,1,4.47,4.47,0,0,1-1.2.13C162.48,233.16,160.75,233.12,160.74,233Z" style="fill:#263238"></path><path d="M161.75,265.67a50.84,50.84,0,0,1-26.58-7.88s6.11,13.91,26.18,12.59Z" style="fill:#eb996e"></path><path d="M159.39,239.58a5,5,0,0,0-4.41-2,4.55,4.55,0,0,0-3.18,1.6,2.89,2.89,0,0,0-.31,3.28,3.36,3.36,0,0,0,3.6,1,10.6,10.6,0,0,0,3.58-2,2.94,2.94,0,0,0,.81-.8.91.91,0,0,0,0-1" style="fill:#eb996e"></path><path d="M152.57,234.65c.45,0,.37,3,2.87,5.18s5.71,1.95,5.72,2.37c0,.19-.73.57-2.08.56a7.4,7.4,0,0,1-4.77-1.81,6.47,6.47,0,0,1-2.22-4.33C152,235.36,152.36,234.63,152.57,234.65Z" style="fill:#263238"></path><path d="M152.17,204.2c-.3.74-3,.31-6.29.61s-5.89,1.11-6.3.43c-.18-.33.29-1,1.37-1.72a11,11,0,0,1,9.59-.79C151.71,203.24,152.29,203.85,152.17,204.2Z" style="fill:#263238"></path><path d="M178.53,206.89c-.61.61-2.9-.11-5.69-.22s-5.14.28-5.67-.39c-.23-.32.16-.94,1.21-1.5a9.1,9.1,0,0,1,4.65-.9,9,9,0,0,1,4.5,1.38C178.49,205.93,178.8,206.59,178.53,206.89Z" style="fill:#263238"></path><path d="M102,285.77s-32.16,7.54-38.4,38c-2.87,14-6.88,94.47,11.86,107,24.19,16.14,55,1.46,55,1.46l-4-38.92h-20l-2.69-42.64C104.55,354,102,285.77,102,285.77Z" style="fill:#313030"></path><path d="M216.4,419.71a24.87,24.87,0,0,0,22.31-25.81l-13.14-55.83s-8.52-47.9-35.45-52.22l9.18,73-.88,15.39s.42,10.18,1.45,29.26Z" style="fill:#313030"></path><path d="M219.88,384.78a33.7,33.7,0,0,0-4.84.53,19.7,19.7,0,0,0-15.46,15.78,33.47,33.47,0,0,0-.43,4.86,5.3,5.3,0,0,1-.15-1.32,17.22,17.22,0,0,1,.22-3.61A19.39,19.39,0,0,1,215,385a18.29,18.29,0,0,1,3.61-.3A5.21,5.21,0,0,1,219.88,384.78Z" style="fill:#263238"></path><path d="M136.91,174.53c3.62,4.86,5.34,8.59,7.51,17.24,1.07,4.23-2.38,7.22-5.8,9.81a2.75,2.75,0,0,1-4.35-1.6h0s1.18,13.25-3.61,19.19c-2.24,2.79-2.34,6.36-1.81,9.37a15.9,15.9,0,0,0,4.28,8.1c5.56,5.84,7.1,15.37,3.27,22.53a60.45,60.45,0,0,0-3.05,5.44,8.2,8.2,0,0,0-.63,3.52,2.8,2.8,0,0,1-2.37,3,219.19,219.19,0,0,1-49.7,1.49,2.73,2.73,0,0,1-2.43-2.06C76.92,265,79.09,259,81.86,254c3.1-5.65,7-11.07,8.11-17.42,1-6-.63-12.42,1.77-18,3-6.83,11-10.06,15-16.33,3.79-5.91,3.48-13.66,6.87-19.8,4.36-7.9,15.07-11.54,23.33-7.93" style="fill:#263238"></path><path d="M137.83,181.86c6.29,3.24,9.2,10.93,15.31,14.49,5.56,3.24,12.5,2.39,18.87,1.43-.23-1.41-.47-2.83-.71-4.24a11.59,11.59,0,0,0,2.36,3.43,3.87,3.87,0,0,0,3.87.92c2.14-.86,2.42-3.8,1.88-6a20.76,20.76,0,0,0-5.56-9.42,28.21,28.21,0,0,0-36.79-2.94" style="fill:#263238"></path><path d="M196.8,324.21a4,4,0,0,1,.06.79c0,.56,0,1.31.07,2.25,0,2,.14,4.79.29,8.28.29,7,.94,16.64,1.73,27.29s1.38,20.31,1.57,27.31c.1,3.5.15,6.33.12,8.29q0,1.41,0,2.25a4.37,4.37,0,0,1,0,.79,4,4,0,0,1-.06-.79c0-.56,0-1.31-.07-2.25,0-2-.14-4.78-.29-8.28-.28-7-.94-16.63-1.72-27.29s-1.39-20.3-1.58-27.3c-.1-3.5-.14-6.34-.12-8.3q0-1.41,0-2.25A6,6,0,0,1,196.8,324.21Z" style="fill:#263238"></path><path d="M106.49,393.32a2.37,2.37,0,0,1-.07-.56c0-.43-.06-1-.11-1.61-.08-1.47-.19-3.46-.32-5.9-.29-5-.73-11.87-1.25-19.48s-1-14.42-1.35-19.47c-.16-2.43-.29-4.43-.39-5.9,0-.65-.06-1.18-.08-1.6a2.28,2.28,0,0,1,0-.57,2.81,2.81,0,0,1,.09.56c0,.42.11.95.18,1.6.14,1.46.33,3.45.56,5.89.44,5,1,11.85,1.5,19.46s.9,14.5,1.09,19.49c.09,2.5.16,4.52.17,5.91v1.61A2.12,2.12,0,0,1,106.49,393.32Z" style="fill:#263238"></path><path d="M106.49,393.32c0,.09-1,.14-2.62.67A11.66,11.66,0,0,0,96,403.35c-.25,1.64-.12,2.68-.21,2.69s-.1-.25-.16-.72a9,9,0,0,1,0-2,11.31,11.31,0,0,1,2.58-6.09,11.54,11.54,0,0,1,5.56-3.58,9.77,9.77,0,0,1,2-.34C106.23,393.26,106.49,393.28,106.49,393.32Z" style="fill:#263238"></path><path d="M130.41,432.24a2.81,2.81,0,0,1-.12-.62c-.06-.46-.13-1.05-.23-1.78-.18-1.61-.43-3.82-.74-6.54-.59-5.58-1.39-13.19-2.27-21.59-.29-2.92-.58-5.75-.84-8.37l.25.23-16-.1-4.65-.07-1.24,0a1.84,1.84,0,0,1-.43,0,1.49,1.49,0,0,1,.43-.05l1.24,0,4.65-.07,16-.09h.22l0,.23.86,8.36c.82,8.41,1.56,16,2.11,21.62.24,2.72.44,4.94.58,6.55.06.73.1,1.33.14,1.79A3,3,0,0,1,130.41,432.24Z" style="fill:#263238"></path><path d="M130.41,432.24a6.38,6.38,0,0,1-.76.27l-2.19.7c-1.91.6-4.68,1.44-8.14,2.36A101.77,101.77,0,0,1,107,438.13a42.5,42.5,0,0,1-15.36-.73,65.68,65.68,0,0,1-7.7-2.16c-1.21-.44-2.4-.88-3.55-1.36-.57-.24-1.14-.47-1.68-.76l-.82-.41-.77-.49a18.73,18.73,0,0,1-4.82-4.73,32.89,32.89,0,0,1-3-5.07,59.18,59.18,0,0,1-3-7.93c-.3-1-.52-1.7-.65-2.21a5.86,5.86,0,0,1-.19-.79,4.47,4.47,0,0,1,.29.76l.74,2.18a66.67,66.67,0,0,0,3.16,7.82,33.48,33.48,0,0,0,3,5,18.35,18.35,0,0,0,4.74,4.58l.74.47.79.4c.52.28,1.09.5,1.66.74,1.14.47,2.32.91,3.53,1.33a65.21,65.21,0,0,0,7.64,2.14,42.77,42.77,0,0,0,15.19.77,108.87,108.87,0,0,0,12.29-2.44c3.46-.88,6.24-1.67,8.17-2.2l2.22-.61A4,4,0,0,1,130.41,432.24Z" style="fill:#263238"></path><path d="M113.44,198.22a12.8,12.8,0,0,0-2.93-14,14.38,14.38,0,0,0-14.15-3.06A10.88,10.88,0,0,0,90.83,185c-2.45,3.38-2,8.36.56,11.69A14.73,14.73,0,0,0,102.32,202a28,28,0,0,0,12.18-2.52" style="fill:#263238"></path><path d="M146.69,356.82c7,5.77,23.46,19.43,23.46,19.43l9.21-1.64-27.92-23.49a3.71,3.71,0,0,0-5.07.29h0A3.69,3.69,0,0,0,146.69,356.82Z" style="fill:#455a64"></path><path d="M146,353.82l-3.62-3.27a1.78,1.78,0,0,1-.17-2.46h0a1.78,1.78,0,0,1,2.55-.16l3.49,3.2Z" style="fill:#455a64"></path><path d="M156.74,355.58a12.31,12.31,0,0,1-2.25,2.75,12.78,12.78,0,0,1-2.62,2.4,12.48,12.48,0,0,1,2.25-2.76A12.21,12.21,0,0,1,156.74,355.58Z" style="fill:#263238"></path><path d="M157,367.08a17.7,17.7,0,0,1-2.79-1.82c-1.66-1.2-3.91-2.94-6.28-5a10.46,10.46,0,0,1-2.94-3.39,4.83,4.83,0,0,1-.09-3.67,4.67,4.67,0,0,1,1.48-2c.47-.35.78-.46.79-.43s-.25.2-.66.59a4.77,4.77,0,0,0-1.26,2,4.53,4.53,0,0,0,.18,3.35,10.53,10.53,0,0,0,2.85,3.19c2.35,2.05,4.55,3.83,6.16,5.1A26.48,26.48,0,0,1,157,367.08Z" style="fill:#263238"></path><path d="M126.77,396.43c6.64-2.22,13.68-.72,20.31-2.95a17.52,17.52,0,0,0,6.27-3.09c2.11-1.87,3.18-4.62,4.86-6.88,5-6.76,14.39-8.16,22.77-9a17,17,0,0,1,5.86.08,5.73,5.73,0,0,1,4.26,3.68c.54,1.89-.68,4.25-2.64,4.45,1.84.08,3.12,1.94,3.46,3.75s0,3.67.28,5.49c.34,2.56,1.74,4.95,1.66,7.53-.11,3.53-3,6.44-6.3,7.8s-6.87,1.54-10.36,2C160,411.71,147,421.46,130.41,428.83" style="fill:#ffbe9d"></path><path d="M192.08,388.82a2.36,2.36,0,0,0,3.38.69,3.61,3.61,0,0,0,1.3-3.49,8.17,8.17,0,0,0-1.66-3.52,46.4,46.4,0,0,0-4.8-5.31L185,381.65Z" style="fill:#ffbe9d"></path><path d="M190.12,383c0,.17-3.26-.1-7.19.51s-7,1.79-7,1.64a7.23,7.23,0,0,1,1.94-.9,27.47,27.47,0,0,1,5-1.26,26.34,26.34,0,0,1,5.15-.27A7.34,7.34,0,0,1,190.12,383Z" style="fill:#eb996e"></path><path d="M192.46,393.42c0,.16-2.73-.4-6.1-.3s-6.05.76-6.08.6a19.61,19.61,0,0,1,12.18-.3Z" style="fill:#eb996e"></path><path d="M191.9,390.34c-.09,0,0-.78-.15-2a10.49,10.49,0,0,0-1.61-4.44,9.7,9.7,0,0,0-.68-.93l-.15-.19.16-.16a4.84,4.84,0,0,0,1.39-3.52c0-1-.3-1.56-.23-1.59a2.55,2.55,0,0,1,.56,1.57,4.84,4.84,0,0,1-1.36,3.91l0-.35a10.67,10.67,0,0,1,.73,1,9.64,9.64,0,0,1,1.54,4.7A4.67,4.67,0,0,1,191.9,390.34Z" style="fill:#eb996e"></path><path d="M192.09,388.25l8.72,8.18,1.11,4.86-8.06-1.82C192.7,395.37,191.85,391.46,192.09,388.25Z" style="fill:#455a64"></path><path d="M180.28,398.67c-.18.32-47.08,23.44-47.08,23.44v5l47.86-24.9L240.43,400v-3.52Z" style="fill:#f5f5f5"></path><path d="M133.2,427.8c.33-.22,51.78-4.86,51.78-4.86l55.45-23-59.37,2.24-47.86,24.9Z" style="fill:#263238"></path><path d="M182.46,415.49c-.41-2.7,2.17-5,4.8-5.73s5.44-.43,8.1-1A35.44,35.44,0,0,0,200.3,407c8.2-3.14,17.2-3.31,26-3.43a5.58,5.58,0,0,1-2,6.82,9.18,9.18,0,0,1-.27,6.58,20.61,20.61,0,0,1-3.67,5.63,12.59,12.59,0,0,1-4.33,3.63,14.31,14.31,0,0,1-5.56.86c-5.9.12-12.22.13-17.09-3.18-3.79-2.58-6.41-7-10.8-8.3l1,0" style="fill:#ffbe9d"></path><path d="M221.76,412.22a4.55,4.55,0,0,1-1.12.11l-3.08.1c-2.6.06-6.19.1-10.15.12h-5.6a7.69,7.69,0,0,1-2.47-.37,3.85,3.85,0,0,1-1.79-1.31,2.35,2.35,0,0,1-.46-1.77,2.28,2.28,0,0,1,.62-1.23,1.25,1.25,0,0,1,1-.44,2.27,2.27,0,0,0-.9.58,2,2,0,0,0,0,2.64,3.48,3.48,0,0,0,1.63,1.12,7.54,7.54,0,0,0,2.34.3l5.59,0c4,0,7.55,0,10.15,0l3.08.06A4.42,4.42,0,0,1,221.76,412.22Z" style="fill:#eb996e"></path><path d="M218.74,417.16a8.13,8.13,0,0,1-1.41.27c-.92.15-2.25.34-3.9.5a37.65,37.65,0,0,1-5.85.13,42.45,42.45,0,0,1-7.06-1.18,55.1,55.1,0,0,0-12.77-1.57c-1.65,0-3,.06-3.91.11a8.41,8.41,0,0,1-1.45,0,7.41,7.41,0,0,1,1.43-.24,38.12,38.12,0,0,1,3.92-.28,49.57,49.57,0,0,1,12.89,1.43,46.22,46.22,0,0,0,7,1.22,42.4,42.4,0,0,0,5.79,0c1.65-.11,3-.25,3.9-.33A7.1,7.1,0,0,1,218.74,417.16Z" style="fill:#eb996e"></path><path d="M213.85,422.44a4.79,4.79,0,0,1-1.11.2c-.71.1-1.75.23-3,.34a36.83,36.83,0,0,1-10.08-.33c-3.95-.75-7-2.77-9.37-3.7a23.33,23.33,0,0,0-3.95-1.21,3.19,3.19,0,0,1,1.12.06,13.57,13.57,0,0,1,3,.81c2.45.87,5.5,2.8,9.34,3.53a41.66,41.66,0,0,0,10,.47l3-.17A4.75,4.75,0,0,1,213.85,422.44Z" style="fill:#eb996e"></path><g style="opacity:0.2"><path d="M200.55,395.59A33.52,33.52,0,0,1,203.47,385,16.33,16.33,0,0,1,211,377.3a10.85,10.85,0,0,1,10.51.64,5.51,5.51,0,0,1,2.1,2.51,3,3,0,0,1-.51,3.1c-1.1,1.18-3,1-4.58.92a19.3,19.3,0,0,0-17.83,10.74"></path></g><g style="opacity:0.2"><path d="M113.71,392.55c4-7.17,2.56-16.16-.49-23.76s-7.6-14.6-9.93-22.46a138.58,138.58,0,0,0,6.85,47"></path></g><path d="M120.75,282.88s4.85,11.43,22.35,10.7,18.06-14.3,18.06-14.3l11.71,12.45-11.12,22.91-14.94,11.15-20.35-8.36-16.77-13Z" style="fill:#313030"></path><g style="opacity:0.5"><path d="M79.77,331.74c.18.22-2.1,2.36-5.11,4.77s-5.58,4.18-5.76,3.95S71,338.11,74,335.7,79.59,331.51,79.77,331.74Z" style="fill:#fafafa"></path></g><path d="M88,319.41c-.09.26-2.85-.52-5.84-2.37s-4.94-3.94-4.75-4.14,2.39,1.49,5.29,3.26S88.08,319.13,88,319.41Z" style="fill:#fafafa"></path><path d="M103,320.75c.24.18-2,3.39-4.49,7.47s-4.42,7.48-4.68,7.35,1.23-3.77,3.8-7.9S102.79,320.57,103,320.75Z" style="fill:#fafafa"></path><path d="M90.16,355.5c-.2.18-2.51-2.18-4.53-5.67s-2.94-6.66-2.68-6.75,1.59,2.83,3.58,6.22S90.39,355.3,90.16,355.5Z" style="fill:#fafafa"></path><path d="M76.74,372.31c-.28,0-.87-2.5-1.3-5.68s-.55-5.79-.27-5.83.87,2.51,1.3,5.69S77,372.27,76.74,372.31Z" style="fill:#fafafa"></path><g style="opacity:0.5"><path d="M89.38,376.89c-.25-.14,1-2.82,2.87-6s3.52-5.61,3.77-5.47-1,2.83-2.87,6S89.63,377,89.38,376.89Z" style="fill:#fafafa"></path></g><path d="M74.7,394.3c-.21.19-2.44-2-4.61-5.16s-3.4-6-3.16-6.15,1.89,2.46,4,5.56S74.92,394.11,74.7,394.3Z" style="fill:#fafafa"></path><path d="M94.65,391.43c.2.2-2.1,2.85-5.13,5.91s-5.66,5.39-5.87,5.19,2.09-2.85,5.13-5.92S94.44,391.23,94.65,391.43Z" style="fill:#fafafa"></path><g style="opacity:0.5"><path d="M83.31,427.36c-.19.2-2.41-1.64-4.43-4.54s-3-5.6-2.76-5.71,1.65,2.32,3.62,5.11S83.52,427.15,83.31,427.36Z" style="fill:#fafafa"></path></g><path d="M109.05,420.09c.14.25-2.32,1.92-5.49,3.73s-5.87,3.08-6,2.83,2.32-1.92,5.49-3.73S108.91,419.84,109.05,420.09Z" style="fill:#fafafa"></path><path d="M119.08,411.81c-.18.21-2.51-1.57-4.63-4.48s-3.11-5.67-2.85-5.77,1.64,2.36,3.69,5.16S119.29,411.59,119.08,411.81Z" style="fill:#fafafa"></path><path d="M136.77,354.22c.18.23-2.47,2.51-5.91,5.08s-6.36,4.47-6.54,4.24,2.48-2.5,5.92-5.07S136.6,354,136.77,354.22Z" style="fill:#fafafa"></path><path d="M118.13,353c-.29,0-.24-2.77.1-6.12s.85-6,1.14-6,.24,2.77-.1,6.12S118.41,353.05,118.13,353Z" style="fill:#fafafa"></path><g style="opacity:0.5"><path d="M135.32,329.59c-.16.23-3.26-1.68-6.66-4.59s-5.78-5.66-5.58-5.85,2.89,2.19,6.26,5.06S135.49,329.35,135.32,329.59Z" style="fill:#fafafa"></path></g><path d="M122.41,300.37c.22.19-2,3.13-4.88,6.57s-5.46,6.07-5.68,5.89,2-3.13,4.88-6.57S122.19,300.19,122.41,300.37Z" style="fill:#fafafa"></path><g style="opacity:0.5"><path d="M107.62,297.24c-.16.26-2.39-.89-5.3-1.86S97,293.94,97,293.64s2.64-.28,5.68.75S107.77,297,107.62,297.24Z" style="fill:#fafafa"></path></g><path d="M145.21,310.71c-.27-.08.2-2.51,1.06-5.43s1.78-5.22,2-5.14-.19,2.51-1,5.43S145.49,310.8,145.21,310.71Z" style="fill:#fafafa"></path><path d="M154.2,333.73c-.29,0-.39-2.4-.22-5.32s.54-5.27.82-5.26.39,2.4.22,5.32S154.48,333.75,154.2,333.73Z" style="fill:#fafafa"></path><path d="M169,351c-.18.23-2.37-1.23-4.89-3.26s-4.42-3.85-4.24-4.07,2.37,1.23,4.89,3.26S169.15,350.78,169,351Z" style="fill:#fafafa"></path><path d="M184.71,326.89c.19.21-1.76,2.25-4.36,4.54s-4.86,4-5,3.76,1.76-2.25,4.36-4.54S184.52,326.67,184.71,326.89Z" style="fill:#fafafa"></path><g style="opacity:0.5"><path d="M177.48,315.5c-.16.24-2.63-1.12-5.29-3.33s-4.46-4.39-4.26-4.58,2.3,1.61,4.92,3.77S177.64,315.26,177.48,315.5Z" style="fill:#fafafa"></path></g><path d="M195.66,295.2c.23.16-1,2.23-3.12,4.23s-4.27,3.1-4.42,2.86,1.65-1.68,3.7-3.61S195.42,295,195.66,295.2Z" style="fill:#fafafa"></path><g style="opacity:0.5"><path d="M183.16,293.3c0,.28-3.23.05-7-.92s-6.73-2.27-6.63-2.54,3.13.59,6.89,1.53S183.2,293,183.16,293.3Z" style="fill:#fafafa"></path></g><g style="opacity:0.5"><path d="M206.38,325.62c-.27-.06.35-4,1.78-8.62s3.08-8.24,3.34-8.14-.94,3.83-2.34,8.44S206.67,325.68,206.38,325.62Z" style="fill:#fafafa"></path></g><path d="M211.53,347.68c-.21.19-2.68-2.08-5.52-5.09s-5-5.6-4.75-5.8,2.67,2.08,5.51,5.09S211.74,347.48,211.53,347.68Z" style="fill:#fafafa"></path><g style="opacity:0.5"><path d="M219.5,360.17c-.29,0-.47-3.28-.4-7.32s.36-7.3.65-7.3.46,3.28.39,7.32S219.78,360.18,219.5,360.17Z" style="fill:#fafafa"></path></g><path d="M211.41,380.75c-.23.16-2.37-2.46-4.35-6.12s-3-6.89-2.75-7,1.71,2.9,3.67,6.49S211.65,380.58,211.41,380.75Z" style="fill:#fafafa"></path><path d="M232.06,384.51c.21.2-1.18,1.88-3.09,3.75s-3.63,3.21-3.83,3,1.19-1.89,3.1-3.76S231.86,384.3,232.06,384.51Z" style="fill:#fafafa"></path><g style="opacity:0.5"><path d="M181.78,361.06c-.26-.08.66-3.36,3-6.78s5.09-5.45,5.26-5.23-2.14,2.52-4.4,5.83S182.06,361.17,181.78,361.06Z" style="fill:#fafafa"></path></g><path d="M123.47,388.49c-.28-.07.21-3,1.09-6.64s1.84-6.47,2.12-6.4-.22,3.05-1.1,6.65S123.74,388.56,123.47,388.49Z" style="fill:#fafafa"></path><path d="M148,390.94c-.16.24-2.65-1.11-5.56-3s-5.15-3.63-5-3.87,2.64,1.1,5.56,3S148.19,390.7,148,390.94Z" style="fill:#fafafa"></path><path d="M146.8,373.22c-.24.16-1.41-1.17-2.62-3s-2-3.39-1.75-3.55,1.41,1.17,2.62,3S147,373.06,146.8,373.22Z" style="fill:#fafafa"></path><path d="M157.63,377.26c.16.23-.89,1.25-2.35,2.28s-2.78,1.67-2.95,1.44.89-1.26,2.35-2.29S157.46,377,157.63,377.26Z" style="fill:#fafafa"></path><g style="opacity:0.5"><path d="M129.35,449.15c-.29-.09.18-2.36.59-5.16s.64-5.11.94-5.11.52,2.37.09,5.26S129.61,449.24,129.35,449.15Z" style="fill:#fafafa"></path></g><g style="opacity:0.5"><path d="M154.27,441c-.25.14-2.15-2.73-4.24-6.4s-3.59-6.78-3.34-6.92,2.15,2.72,4.24,6.4S154.52,440.89,154.27,441Z" style="fill:#fafafa"></path></g><g style="opacity:0.5"><path d="M180.7,429.89c.23.17-2.27,3.83-5.59,8.17s-6.2,7.71-6.43,7.54,2.28-3.83,5.6-8.17S180.48,429.71,180.7,429.89Z" style="fill:#fafafa"></path></g><g style="opacity:0.5"><path d="M188.15,451.12c0,.28-3.27,1-7.39,1.59s-7.5.85-7.54.57,3.26-1,7.39-1.6S188.11,450.83,188.15,451.12Z" style="fill:#fafafa"></path></g><path d="M189.3,440.42c-.29-.07,0-2.2.07-4.82s0-4.77.35-4.81.82,2.12.69,4.85S189.57,440.49,189.3,440.42Z" style="fill:#fafafa"></path><path d="M153.61,452.88c-.1.25-2.81-.64-5.63-2.68s-4.54-4.3-4.33-4.47,2.21,1.68,4.94,3.62S153.73,452.6,153.61,452.88Z" style="fill:#fafafa"></path><path d="M111.2,451.3c-.28-.07,0-2.36.74-5.1s1.48-4.92,1.76-4.85-.06,2.35-.75,5.1S111.48,451.37,111.2,451.3Z" style="fill:#fafafa"></path><path d="M106.59,198.36c.06-.08,1.2.9,3.29,2a25.13,25.13,0,0,0,3.83,1.67,27.34,27.34,0,0,0,5,1.11,26.6,26.6,0,0,0,5.11.05,23,23,0,0,0,4.12-.76c2.3-.64,3.62-1.33,3.67-1.24a4.42,4.42,0,0,1-.91.53,9.45,9.45,0,0,1-1.12.51,15.59,15.59,0,0,1-1.54.56,21.66,21.66,0,0,1-4.17.88,25.3,25.3,0,0,1-5.22,0,24.9,24.9,0,0,1-5.08-1.18,21.9,21.9,0,0,1-3.86-1.8c-.53-.29-1-.62-1.37-.89a9.41,9.41,0,0,1-1-.76C106.84,198.64,106.56,198.39,106.59,198.36Z" style="fill:#455a64"></path><path d="M132.42,209.87a5.12,5.12,0,0,1-1.09.33c-.71.18-1.74.42-3,.64a27.51,27.51,0,0,1-10.24.06,16,16,0,0,1-8.85-5,11.09,11.09,0,0,1-1.68-2.64,3.63,3.63,0,0,1-.36-1.08,17.71,17.71,0,0,0,2.32,3.48,16.35,16.35,0,0,0,8.68,4.77,30,30,0,0,0,10.08.09c1.29-.18,2.33-.36,3-.48A4.93,4.93,0,0,1,132.42,209.87Z" style="fill:#455a64"></path><path d="M96.81,271.07a1,1,0,0,1-.13-.14c-.07-.1-.2-.24-.34-.45a5.71,5.71,0,0,1-.79-2,9.15,9.15,0,0,1,2.19-7.43,19,19,0,0,1,4.19-3.53c1.64-1.08,3.48-2.07,5.29-3.29a16.09,16.09,0,0,0,4.81-4.71,8.46,8.46,0,0,0,1.2-3.3,10.2,10.2,0,0,0-.19-3.64,45.53,45.53,0,0,0-2.53-6.89,19,19,0,0,1-1.69-6.74,17.89,17.89,0,0,1,3.43-11.08,16.69,16.69,0,0,1,5.89-5.2l1.12-.54.86-.3a4.16,4.16,0,0,1,.72-.21,4.48,4.48,0,0,1-.68.31l-.83.35-1.09.57a17.08,17.08,0,0,0-5.69,5.23,17.74,17.74,0,0,0-3.25,10.85,18.55,18.55,0,0,0,1.68,6.56,45.33,45.33,0,0,1,2.57,7,10.93,10.93,0,0,1,.19,3.82,8.88,8.88,0,0,1-1.27,3.5,16.51,16.51,0,0,1-5,4.84c-1.84,1.22-3.69,2.2-5.32,3.26a18.59,18.59,0,0,0-4.14,3.4,9.09,9.09,0,0,0-2.28,7.15A7.11,7.11,0,0,0,96.81,271.07Z" style="fill:#455a64"></path><path d="M123.45,271.43a2.88,2.88,0,0,1-.58-.33,4.72,4.72,0,0,1-1.29-1.4,6.7,6.7,0,0,1-.9-2.88,10.76,10.76,0,0,1,.44-4c.81-2.93,3.26-5.6,5.1-9a11.23,11.23,0,0,0,1.51-5.7,15.46,15.46,0,0,0-1.61-6.17c-1.9-4-4.82-7.22-6.84-10.56a22.15,22.15,0,0,1-2.36-5,12.19,12.19,0,0,1-.49-4.82,9.49,9.49,0,0,1,2.92-6.25,6.53,6.53,0,0,1,1.6-1,3,3,0,0,1,.62-.22,9.66,9.66,0,0,0-2.09,1.4,9.52,9.52,0,0,0-2.68,6.13,11.82,11.82,0,0,0,.54,4.66,21.32,21.32,0,0,0,2.35,4.91c1,1.63,2.24,3.26,3.47,5a35.87,35.87,0,0,1,3.43,5.61,15.58,15.58,0,0,1,1.65,6.39,11.78,11.78,0,0,1-1.59,5.93c-1.92,3.41-4.37,6-5.18,8.84a10.83,10.83,0,0,0-.5,3.85,6.79,6.79,0,0,0,.78,2.8A5.94,5.94,0,0,0,123.45,271.43Z" style="fill:#455a64"></path><path d="M162.91,196.36s-.14,0-.38-.16a9,9,0,0,1-1-.63,11.88,11.88,0,0,1-2.87-3.21,35.43,35.43,0,0,1-2.77-5.74c-.46-1.1-1-2.25-1.56-3.38a20.82,20.82,0,0,0-2.2-3.3,22.59,22.59,0,0,0-11.56-7.45,30.7,30.7,0,0,0-5.75-.82,7.25,7.25,0,0,1,1.57-.09,21,21,0,0,1,4.27.55,22.2,22.2,0,0,1,11.87,7.48A21.27,21.27,0,0,1,154.8,183c.61,1.16,1.09,2.33,1.54,3.44a39.56,39.56,0,0,0,2.64,5.73,13.1,13.1,0,0,0,2.69,3.24C162.44,196.06,162.94,196.32,162.91,196.36Z" style="fill:#455a64"></path><path d="M176.86,196.28a1.84,1.84,0,0,1-.54-.06,7.73,7.73,0,0,1-1.5-.39,13,13,0,0,1-4.77-3.09,28.88,28.88,0,0,1-4.94-6.84c-1.57-2.75-3.09-5.91-5.44-8.66a17.1,17.1,0,0,0-8.49-5.29,33.15,33.15,0,0,0-8.25-1.11c-2.39-.05-4.32,0-5.66.1l-1.54.06a2,2,0,0,1-.54,0,1.9,1.9,0,0,1,.53-.09l1.54-.16c1.33-.11,3.27-.27,5.67-.26a32,32,0,0,1,8.38,1,17.32,17.32,0,0,1,8.75,5.42c2.42,2.83,3.93,6,5.46,8.77a29.54,29.54,0,0,0,4.79,6.8,13.37,13.37,0,0,0,4.58,3.17C176.13,196.13,176.87,196.22,176.86,196.28Z" style="fill:#455a64"></path><path d="M200.47,261.18c-.05,0,.26-.71.59-2a19.1,19.1,0,0,0,.6-5.64,18.9,18.9,0,0,0-2.12-8.08,19.3,19.3,0,0,0-2.86-4.05c-1.16-1.29-2.49-2.51-3.82-3.79a33.68,33.68,0,0,1-3.71-4,24.81,24.81,0,0,1-2.67-4.31,25.39,25.39,0,0,1-2.36-8.22,23.19,23.19,0,0,1,.06-5.77,12.24,12.24,0,0,1,.27-1.54,2.08,2.08,0,0,1,.15-.53c.05,0-.11.75-.22,2.1a25.2,25.2,0,0,0,.1,5.69,26.43,26.43,0,0,0,2.43,8.06,25.12,25.12,0,0,0,2.64,4.21,35.1,35.1,0,0,0,3.66,3.91c1.34,1.28,2.67,2.51,3.85,3.83a19.32,19.32,0,0,1,2.9,4.17,18.94,18.94,0,0,1,2.07,8.29,18.21,18.21,0,0,1-.77,5.71,10.27,10.27,0,0,1-.55,1.47A1.81,1.81,0,0,1,200.47,261.18Z" style="fill:#455a64"></path><path d="M90.92,195.49a3.71,3.71,0,0,1,.13-1A9.83,9.83,0,0,1,92,192a10.7,10.7,0,0,1,15.54-3.71,9.37,9.37,0,0,1,2,1.79,3,3,0,0,1,.56.82,18.33,18.33,0,0,0-2.77-2.3,10.63,10.63,0,0,0-15,3.59A18.57,18.57,0,0,0,90.92,195.49Z" style="fill:#455a64"></path><path d="M100.61,199.7a8.69,8.69,0,0,1,.28-2.27,10.07,10.07,0,0,1,2.37-5,5.33,5.33,0,0,1,5.3-1.34,3.3,3.3,0,0,1,1.42,1c.25.32.32.54.3.55a4.67,4.67,0,0,0-1.83-1.17,5.14,5.14,0,0,0-4.82,1.36,10.87,10.87,0,0,0-2.38,4.73A12.24,12.24,0,0,1,100.61,199.7Z" style="fill:#455a64"></path><path d="M113.32,185.05a43.25,43.25,0,0,0-2.63,5.45,47.32,47.32,0,0,0-1.36,5.89,15.73,15.73,0,0,1,4-11.34Z" style="fill:#313030"></path></g><g id="freepik--speech-bubble--inject-36"><path d="M273.3,209.43a3.11,3.11,0,1,0,3.11-3.11A3.11,3.11,0,0,0,273.3,209.43Z" style="fill:#455a64"></path><circle cx="263.95" cy="209.43" r="3.11" style="fill:#455a64"></circle><path d="M248.42,207.87a3.11,3.11,0,1,0,4.25-1.14A3.11,3.11,0,0,0,248.42,207.87Z" style="fill:#455a64"></path><path d="M263.76,173.08a2.72,2.72,0,0,0-.63,0l-1.85.05c-.4,0-.86,0-1.36.06l-1.63.23-1.9.27-2.13.53A34.52,34.52,0,0,0,244,178.7a36.42,36.42,0,0,0-16.71,27.35,37.43,37.43,0,0,0-.1,5c.06.85,0,1.7.16,2.55l.39,2.57a36.85,36.85,0,0,0,3.46,10.15,39.35,39.35,0,0,0,6.63,9.11,38.15,38.15,0,0,0,9.55,6.86A34.7,34.7,0,0,0,259,245.84a24.78,24.78,0,0,0,3.11.27,29.68,29.68,0,0,0,3.13,0,37.31,37.31,0,0,0,6.29-.79A36.75,36.75,0,0,0,284,240.11l-.38,0,12.74,5.12.76.3-.22-.78c-1.28-4.68-2.54-9.23-3.74-13.63l-.07.34a36.45,36.45,0,0,0,6.8-15.57,33.2,33.2,0,0,0,.5-8,25.36,25.36,0,0,0-.37-3.83c-.09-.63-.19-1.25-.28-1.87s-.31-1.2-.45-1.8a36.46,36.46,0,0,0-14.22-20.73,34.77,34.77,0,0,0-8.46-4.46l-1.9-.68-1.81-.46-1.66-.41c-.53-.11-1-.16-1.52-.23-1-.13-1.81-.29-2.55-.33l-1.88-.06-1.14,0c-.26,0-.39,0-.39,0l.39,0,1.14.09,1.86.12c.73.06,1.57.25,2.53.39a36.24,36.24,0,0,1,29,26.88c.14.59.32,1.17.43,1.77s.18,1.22.28,1.83a26,26,0,0,1,.33,3.77,32.38,32.38,0,0,1-.51,7.81A36,36,0,0,1,292.47,231l-.11.15.05.19q1.8,6.6,3.71,13.63l.54-.48-12.73-5.13-.2-.08-.19.12a36,36,0,0,1-12.23,5.14,36.58,36.58,0,0,1-6.14.78,26.18,26.18,0,0,1-3.07-.06,23.66,23.66,0,0,1-3-.25,34.25,34.25,0,0,1-11.38-3.48,35.58,35.58,0,0,1-15.86-15.61A36,36,0,0,1,228.4,216c-.13-.85-.26-1.68-.38-2.52s-.11-1.67-.18-2.5a37.86,37.86,0,0,1,.08-4.89,36,36,0,0,1,16.28-27,34.66,34.66,0,0,1,10.14-4.57l2.1-.56,1.89-.31,1.61-.27c.5,0,.95-.06,1.35-.1l1.84-.13A3.82,3.82,0,0,0,263.76,173.08Z" style="fill:#455a64"></path></g></svg>